<?xml version="1.0" encoding="UTF-8"?>
<svg xmlns="http://www.w3.org/2000/svg" xmlns:xlink="http://www.w3.org/1999/xlink" viewBox="0 0 50 50" width="35px" height="35px">
<g id="surface26168376">
<path style=" stroke:none;fill-rule:nonzero;fill:rgb(100%,100%,100%);fill-opacity:1;" d="M 22.199219 9.601562 C 15.621094 9.601562 10.300781 14.921875 10.300781 21.5 C 10.300781 28.078125 15.621094 33.398438 22.199219 33.398438 C 24.546875 33.398438 26.722656 32.710938 28.566406 31.539062 L 37.164062 40.136719 L 40.136719 37.164062 L 31.648438 28.695312 C 33.175781 26.695312 34.101562 24.214844 34.101562 21.5 C 34.101562 14.921875 28.777344 9.601562 22.199219 9.601562 Z M 22.199219 12.398438 C 27.238281 12.398438 31.300781 16.460938 31.300781 21.5 C 31.300781 26.539062 27.238281 30.601562 22.199219 30.601562 C 17.160156 30.601562 13.101562 26.539062 13.101562 21.5 C 13.101562 16.460938 17.160156 12.398438 22.199219 12.398438 Z M 22.199219 12.398438 "/>
</g>
</svg>
